HIERARCHY
ROOT Bone
{
	OFFSET 0.000000 0.000000 0.000000
	CHANNELS 6 Xposition Yposition Zposition Xrotation Yrotation Zrotation
	JOINT Bone.001
	{
		OFFSET 0.002685 0.000000 0.204027
		CHANNELS 3 Xrotation Yrotation Zrotation
		JOINT Bone.002
		{
			OFFSET 0.000000 0.000000 0.198658
			CHANNELS 3 Xrotation Yrotation Zrotation
			JOINT Bone.003
			{
				OFFSET -0.005369 0.000000 0.198658
				CHANNELS 3 Xrotation Yrotation Zrotation
				End Site
				{
					OFFSET -0.002685 0.000000 0.198658
				}
			}
		}
	}
}
MOTION
Frames: 28
Frame Time: 0.041667
0.000000 0.000000 0.000000 0.000000 0.753848 0.000000 0.000000 -0.753848 0.000000 0.000000 -1.548158 0.000000 0.000000 0.773938 0.000000 
0.000000 0.000000 0.000000 0.000000 0.753848 0.000000 0.000000 -0.753848 0.000000 0.000000 -1.548158 0.000000 0.000000 0.773938 0.000000 
0.000000 0.000000 0.000000 0.000000 1.527525 0.000000 0.000000 -1.527525 0.000000 0.000000 -1.548158 0.000000 0.000000 0.773938 0.000000 
0.000000 0.000000 0.000000 0.000000 1.507436 0.000000 0.000000 -1.507436 0.000000 0.000000 -1.548158 0.000000 0.000000 0.773938 0.000000 
0.000000 0.000000 0.000000 0.000000 1.548158 0.000000 0.000000 -1.548158 0.000000 0.000000 -1.527525 0.000000 0.000000 0.763627 0.000000 
0.000000 0.000000 0.000000 0.000000 1.507436 0.000000 0.000000 -1.507436 0.000000 0.000000 -1.527525 0.000000 0.000000 0.763627 0.000000 
0.000000 0.000000 0.000000 0.000000 2.231175 0.000000 0.000000 -2.995073 0.000000 0.000000 0.000000 0.000000 0.000000 -0.763627 0.000000 
0.000000 0.000000 0.000000 0.000000 2.231175 0.000000 0.000000 -2.985023 0.000000 0.000000 0.000000 0.000000 0.000000 0.000000 0.000000 
0.000000 0.000000 0.000000 0.000000 2.290610 0.000000 0.000000 -2.290610 0.000000 0.000000 -1.507436 0.000000 0.000000 0.753587 0.000000 
0.000000 0.000000 0.000000 0.000000 3.094058 0.000000 0.000000 -3.094058 0.000000 0.000000 -1.527525 0.000000 0.000000 0.000000 0.000000 
0.000000 0.000000 0.000000 0.000000 3.012788 0.000000 0.000000 -3.012788 0.000000 0.000000 -0.753848 0.000000 0.000000 -0.753587 0.000000 
0.000000 0.000000 0.000000 0.000000 3.715289 0.000000 0.000000 -3.715289 0.000000 0.000000 -0.763898 0.000000 0.000000 -0.763627 0.000000 
0.000000 0.000000 0.000000 0.000000 4.455603 0.000000 0.000000 -4.455603 0.000000 0.000000 0.000000 0.000000 0.000000 -1.507436 0.000000 
0.000000 0.000000 0.000000 0.000000 4.455603 0.000000 0.000000 -4.455603 0.000000 0.000000 0.000000 0.000000 0.000000 -1.507436 0.000000 
0.000000 0.000000 0.000000 0.000000 5.194429 0.000000 0.000000 -4.450370 0.000000 0.000000 -0.744059 0.000000 0.000000 -0.744059 0.000000 
0.000000 0.000000 0.000000 0.000000 5.782392 0.000000 0.000000 -5.038333 0.000000 0.000000 0.000000 0.000000 0.000000 -1.488118 0.000000 
0.000000 0.000000 0.000000 0.000000 6.581945 0.000000 0.000000 -5.837885 0.000000 0.000000 0.000000 0.000000 0.000000 -1.488118 0.000000 
0.000000 0.000000 0.000000 0.000000 6.666660 0.000000 0.000000 -5.178792 0.000000 0.000000 -0.743808 0.000000 0.000000 -1.488118 0.000000 
0.000000 0.000000 0.000000 0.000000 6.499346 0.000000 0.000000 -5.011479 0.000000 0.000000 -1.487868 0.000000 0.000000 0.000000 0.000000 
0.000000 0.000000 0.000000 0.000000 6.666660 0.000000 0.000000 -5.178792 0.000000 0.000000 -0.743808 0.000000 0.000000 -0.744059 0.000000 
0.000000 0.000000 0.000000 0.000000 6.753574 0.000000 0.000000 -5.265707 0.000000 0.000000 -0.743808 0.000000 0.000000 -0.744059 0.000000 
0.000000 0.000000 0.000000 0.000000 6.753574 0.000000 0.000000 -5.265707 0.000000 0.000000 -0.743808 0.000000 0.000000 -0.744059 0.000000 
0.000000 0.000000 0.000000 0.000000 7.305760 0.000000 0.000000 -5.836959 0.000000 0.000000 -0.734280 0.000000 0.000000 0.000000 0.000000 
0.000000 0.000000 0.000000 0.000000 7.399595 0.000000 0.000000 -5.911727 0.000000 0.000000 -0.743808 0.000000 0.000000 -0.744059 0.000000 
0.000000 0.000000 0.000000 0.000000 7.214262 0.000000 0.000000 -4.983087 0.000000 0.000000 -1.487115 0.000000 0.000000 -0.744059 0.000000 
0.000000 0.000000 0.000000 0.000000 7.214262 0.000000 0.000000 -4.983087 0.000000 0.000000 -1.487115 0.000000 0.000000 -0.744059 0.000000 
0.000000 0.000000 0.000000 0.000000 8.027238 0.000000 0.000000 -5.091564 0.000000 0.000000 -1.466873 0.000000 0.000000 -1.468801 0.000000 
0.000000 0.000000 0.000000 0.000000 8.637131 0.000000 0.000000 -5.738555 0.000000 0.000000 -1.448361 0.000000 0.000000 -0.724992 0.000000 
